<?xml version="1.0" encoding="UTF-8" standalone="no"?>
<svg width="36px" height="36px" viewBox="0 0 36 36" version="1.1" xmlns="http://www.w3.org/2000/svg" xmlns:xlink="http://www.w3.org/1999/xlink" xmlns:sketch="http://www.bohemiancoding.com/sketch/ns">
    <!-- Generator: Sketch 3.3.2 (12043) - http://www.bohemiancoding.com/sketch -->
    <title>share-btn </title>
    <desc>Created with Sketch.</desc>
    <defs></defs>
    <g id="Landing" stroke="none" stroke-width="1" fill="none" fill-rule="evenodd" sketch:type="MSPage">
        <g sketch:type="MSArtboardGroup" transform="translate(-31.000000, -8.000000)" id="Header">
            <g sketch:type="MSLayerGroup" transform="translate(0.000000, -2.000000)">
                <g id="menu" transform="translate(30.000000, 0.000000)" sketch:type="MSShapeGroup">
                    <g id="Share-btns" transform="translate(0.818182, 8.000000)">
                        <g id="share-btn-" transform="translate(1.000000, 3.000000)">
                            <path d="M33.9296875,17.109375 C33.9296875,26.2218173 26.5421298,33.609375 17.4296875,33.609375 C8.31724519,33.609375 0.9296875,26.2218173 0.9296875,17.109375 C0.9296875,7.99693269 8.31724519,0.609375 17.4296875,0.609375 C26.5421298,0.609375 33.9296875,7.99693269 33.9296875,17.109375 L33.9296875,17.109375 Z" id="Stroke-69" stroke="#EEC142" stroke-width="2" stroke-linecap="round" stroke-linejoin="round"></path>
                            <path d="M23.3923828,20.2111562 C22.4431641,20.2111562 21.58125,20.5545625 20.94375,21.1124687 L15.3082031,18.188875 C15.3193359,18.0821406 15.3251953,17.9738594 15.3251953,17.8645469 C15.3251953,17.8021562 15.3228516,17.7377031 15.3193359,17.6742812 L20.8857422,14.8677344 C21.5291016,15.4560625 22.4144531,15.8200937 23.3923828,15.8200937 C25.3587891,15.8200937 26.953125,14.3500469 26.953125,12.5350469 C26.953125,10.7205625 25.3587891,9.25 23.3923828,9.25 C21.4253906,9.25 19.8310547,10.7205625 19.8310547,12.5350469 C19.8310547,12.5448438 19.8316406,12.554125 19.8316406,12.5639219 L14.1515625,15.4271875 C13.5199219,14.9007344 12.6826172,14.5795 11.7638672,14.5795 C9.79746094,14.5795 8.203125,16.0500625 8.203125,17.8645469 C8.203125,19.6795469 9.79746094,21.1495938 11.7638672,21.1495938 C12.6322266,21.1495938 13.4273437,20.8634219 14.0449219,20.3885312 L19.8339844,23.3925625 C19.8328125,23.4271094 19.8310547,23.4616563 19.8310547,23.4962031 C19.8310547,25.3101719 21.4253906,26.78125 23.3923828,26.78125 C25.3587891,26.78125 26.953125,25.3101719 26.953125,23.4962031 C26.953125,21.6822344 25.3587891,20.2111562 23.3923828,20.2111562" id="Fill-71" fill="#EEC142"></path>
                        </g>
                    </g>
                </g>
            </g>
        </g>
    </g>
</svg>